<svg class="border shadow-md dark:border-slate-700" viewBox="0 0 505.12 505.12" xmlns="http://www.w3.org/2000/svg" preserveAspectRatio="none" style="width: 505.12px; height: 505.12px;"><rect class="bg" id="bg" x="0" y="0" width="505.12" height="505.12" fill="#ffffff"/><g transform="rotate(0 252.56 252.56)"><path id="-1" d="M -352.56 -20.51 S -186.28 -53.51&#10;            0.00 -20.51 166.28 -50.51&#10;            352.56 -20.51 518.84 -55.51&#10;            705.12 -20.51 871.40 -45.77&#10;            1057.68 -20.51 h 110 V 705.12 H -352.56 Z" fill="#000000"/><path id="0" d="M -352.56 30.00 S -354.00 -11.00&#10;            0.00 30.00 166.28 -10.00&#10;            352.56 30.00 433.12 2.00&#10;            705.12 30.00 835.68 -16.00&#10;            1057.68 30.00 h 110 V 705.12 H -352.56 Z" fill="#030303"/><path id="1" d="M -352.56 80.51 S -186.28 33.51&#10;            0.00 80.51 155.56 55.26&#10;            352.56 80.51 518.84 37.51&#10;            705.12 80.51 800.68 55.26&#10;            1057.68 80.51 h 110 V 705.12 H -352.56 Z" fill="#060606"/><path id="2" d="M -352.56 131.02 S -193.00 88.02&#10;            0.00 131.02 166.28 99.02&#10;            352.56 131.02 396.12 95.02&#10;            705.12 131.02 871.40 105.77&#10;            1057.68 131.02 h 110 V 705.12 H -352.56 Z" fill="#090909"/><path id="3" d="M -352.56 181.54 S -186.28 145.54&#10;            0.00 181.54 166.28 156.28&#10;            352.56 181.54 498.12 146.54&#10;            705.12 181.54 871.40 156.28&#10;            1057.68 181.54 h 110 V 705.12 H -352.56 Z" fill="#0c0c0c"/><path id="4" d="M -352.56 232.05 S -186.28 192.05&#10;            0.00 232.05 166.28 184.05&#10;            352.56 232.05 518.84 206.05&#10;            705.12 232.05 783.68 206.79&#10;            1057.68 232.05 h 110 V 705.12 H -352.56 Z" fill="#0f0f0f"/><path id="5" d="M -352.56 282.56 S -186.28 250.56&#10;            0.00 282.56 166.28 257.30&#10;            352.56 282.56 518.84 257.30&#10;            705.12 282.56 817.68 256.56&#10;            1057.68 282.56 h 110 V 705.12 H -352.56 Z" fill="#121212"/><path id="6" d="M -352.56 333.07 S -186.28 288.07&#10;            0.00 333.07 166.28 307.82&#10;            352.56 333.07 518.12 307.82&#10;            705.12 333.07 777.68 307.82&#10;            1057.68 333.07 h 110 V 705.12 H -352.56 Z" fill="#151515"/><path id="7" d="M -352.56 383.58 S -216.00 346.58&#10;            0.00 383.58 65.56 358.33&#10;            352.56 383.58 518.84 334.58&#10;            705.12 383.58 727.68 343.58&#10;            1057.68 383.58 h 110 V 705.12 H -352.56 Z" fill="#181818"/><path id="8" d="M -352.56 434.10 S -216.00 408.84&#10;            0.00 434.10 67.56 392.10&#10;            352.56 434.10 410.12 396.10&#10;            705.12 434.10 858.68 408.84&#10;            1057.68 434.10 h 110 V 705.12 H -352.56 Z" fill="#1b1b1b"/><path id="9" d="M -352.56 484.61 S -227.00 459.35&#10;            0.00 484.61 46.56 456.61&#10;            352.56 484.61 518.84 450.61&#10;            705.12 484.61 727.68 449.61&#10;            1057.68 484.61 h 110 V 705.12 H -352.56 Z" fill="#1e1e1e"/></g></svg>